<svg width="21" height="23" viewBox="0 0 21 23" fill="none" xmlns="http://www.w3.org/2000/svg">
<g clip-path="url(#clip0_32_279)">
<path d="M1.01855 20.4404C12.9741 13.9593 20.2608 16.7908 20.2939 16.8037C13.1415 15.9851 3.82489 20.797 0 23C0.317412 22.0483 0.677177 21.1786 1.01855 20.4395V20.4404ZM6.73047 16.8564C5.1702 17.4291 4.25904 17.9356 4.25391 17.9385V6.17871L6.73047 4.2334V16.8564ZM10.2676 15.8301C9.35156 16.0291 8.51584 16.2613 7.7793 16.4971V1.875L10.2676 0V15.8301ZM13.7812 6.52051V15.3125C12.9057 15.3801 12.0702 15.4909 11.2842 15.6299V4.76367L13.7812 6.52051ZM17.2656 10.8672V15.2969C16.419 15.2379 15.5949 15.2278 14.7988 15.2559V9.17773L17.2656 10.8672Z" fill="#CEA84D"/>
</g>
<defs>
<clipPath id="clip0_32_279">
<rect width="20.2941" height="23" fill="white"/>
</clipPath>
</defs>
</svg>
