<svg width="120" height="23" viewBox="0 0 120 23" fill="none" xmlns="http://www.w3.org/2000/svg">
<path d="M31.7233 10.6317V13.9438C31.5932 14.1007 31.3923 14.271 31.1206 14.4547C30.8489 14.6345 30.4987 14.7895 30.0701 14.9196C29.6415 15.0497 29.1229 15.1148 28.5145 15.1148C27.9749 15.1148 27.4831 15.0268 27.0392 14.8508C26.5953 14.6709 26.2126 14.4088 25.8912 14.0643C25.5735 13.7199 25.3286 13.299 25.1564 12.8015C24.9842 12.3002 24.8981 11.728 24.8981 11.0851V10.5628C24.8981 9.91986 24.9804 9.34775 25.1449 8.84643C25.3133 8.34511 25.5525 7.92225 25.8625 7.57783C26.1724 7.23341 26.5417 6.97128 26.9703 6.79141C27.399 6.61155 27.8754 6.52162 28.3997 6.52162C29.1268 6.52162 29.7238 6.64025 30.1906 6.87752C30.6575 7.11095 31.0134 7.43624 31.2583 7.85336C31.5071 8.26666 31.6601 8.74119 31.7176 9.27695H30.0471C30.005 8.99376 29.9247 8.74693 29.806 8.53646C29.6874 8.32598 29.5171 8.16142 29.2952 8.04279C29.077 7.92416 28.7938 7.86484 28.4456 7.86484C28.1586 7.86484 27.9022 7.92416 27.6764 8.04279C27.4544 8.1576 27.2669 8.32789 27.1139 8.55368C26.9608 8.77946 26.8441 9.05882 26.7637 9.39176C26.6833 9.72469 26.6432 10.1112 26.6432 10.5513V11.0851C26.6432 11.5214 26.6852 11.9079 26.7694 12.2447C26.8536 12.5776 26.978 12.8589 27.1426 13.0885C27.3109 13.3143 27.5176 13.4846 27.7625 13.5994C28.0074 13.7142 28.2925 13.7716 28.6178 13.7716C28.8895 13.7716 29.1153 13.7486 29.2952 13.7027C29.4788 13.6568 29.6262 13.6013 29.7372 13.5362C29.852 13.4673 29.94 13.4023 30.0012 13.3411V11.8601H28.4284V10.6317H31.7233ZM33.1124 6.64217H36.2294C36.8685 6.64217 37.4176 6.73784 37.8769 6.92918C38.3399 7.12052 38.6958 7.40371 38.9446 7.77874C39.1933 8.15377 39.3177 8.61491 39.3177 9.16214C39.3177 9.60989 39.2411 9.99448 39.0881 10.3159C38.9388 10.6336 38.7264 10.8995 38.4509 11.1138C38.1792 11.3243 37.8596 11.4927 37.4923 11.619L36.9469 11.906H34.2375L34.226 10.5628H36.2409C36.5432 10.5628 36.7939 10.5092 36.9929 10.402C37.1919 10.2949 37.3411 10.1456 37.4406 9.9543C37.5439 9.76296 37.5956 9.541 37.5956 9.28843C37.5956 9.02055 37.5458 8.78903 37.4463 8.59386C37.3468 8.39869 37.1957 8.24944 36.9929 8.14612C36.79 8.04279 36.5356 7.99113 36.2294 7.99113H34.8345V15H33.1124V6.64217ZM37.785 15L35.8792 11.2746L37.6989 11.2631L39.6276 14.9196V15H37.785ZM47.509 10.6259V11.022C47.509 11.6572 47.4229 12.2274 47.2507 12.7326C47.0785 13.2377 46.8355 13.6683 46.5217 14.0242C46.2079 14.3762 45.8329 14.646 45.3966 14.8335C44.9642 15.021 44.4839 15.1148 43.9558 15.1148C43.4315 15.1148 42.9513 15.021 42.515 14.8335C42.0826 14.646 41.7075 14.3762 41.3899 14.0242C41.0723 13.6683 40.8254 13.2377 40.6494 12.7326C40.4772 12.2274 40.3911 11.6572 40.3911 11.022V10.6259C40.3911 9.98683 40.4772 9.41663 40.6494 8.91531C40.8216 8.41017 41.0646 7.97965 41.3784 7.62375C41.6961 7.26786 42.0711 6.99615 42.5035 6.80863C42.9398 6.62112 43.42 6.52736 43.9443 6.52736C44.4724 6.52736 44.9527 6.62112 45.3851 6.80863C45.8214 6.99615 46.1964 7.26786 46.5102 7.62375C46.8279 7.97965 47.0728 8.41017 47.245 8.91531C47.421 9.41663 47.509 9.98683 47.509 10.6259ZM45.7697 11.022V10.6144C45.7697 10.1705 45.7296 9.78018 45.6492 9.44342C45.5688 9.10666 45.4502 8.82347 45.2933 8.59386C45.1364 8.36425 44.945 8.19204 44.7193 8.07723C44.4935 7.9586 44.2352 7.89929 43.9443 7.89929C43.6535 7.89929 43.3952 7.9586 43.1694 8.07723C42.9474 8.19204 42.758 8.36425 42.6011 8.59386C42.448 8.82347 42.3313 9.10666 42.2509 9.44342C42.1706 9.78018 42.1304 10.1705 42.1304 10.6144V11.022C42.1304 11.4621 42.1706 11.8524 42.2509 12.193C42.3313 12.5298 42.4499 12.8149 42.6068 13.0483C42.7637 13.2779 42.9551 13.452 43.1809 13.5707C43.4067 13.6893 43.665 13.7486 43.9558 13.7486C44.2466 13.7486 44.505 13.6893 44.7307 13.5707C44.9565 13.452 45.146 13.2779 45.299 13.0483C45.4521 12.8149 45.5688 12.5298 45.6492 12.193C45.7296 11.8524 45.7697 11.4621 45.7697 11.022ZM50.7638 13.674L52.4284 6.64217H53.3584L53.5708 7.81318L51.797 15H50.7982L50.7638 13.674ZM49.9085 6.64217L51.2861 13.674L51.1713 15H50.0577L48.2036 6.64217H49.9085ZM55.0345 13.6453L56.395 6.64217H58.0998L56.2515 15H55.1379L55.0345 13.6453ZM53.8807 6.64217L55.5569 13.7027L55.511 15H54.5122L52.7269 7.80744L52.9566 6.64217H53.8807ZM62.8528 6.64217V15H61.1364V6.64217H62.8528ZM65.4244 6.64217V7.99113H58.605V6.64217H65.4244ZM71.9798 10.0461V11.3894H67.6172V10.0461H71.9798ZM68.1281 6.64217V15H66.406V6.64217H68.1281ZM73.2082 6.64217V15H71.4919V6.64217H73.2082ZM77.634 6.64217H80.7509C81.39 6.64217 81.9392 6.73784 82.3984 6.92918C82.8614 7.12052 83.2173 7.40371 83.4661 7.77874C83.7148 8.15377 83.8392 8.61491 83.8392 9.16214C83.8392 9.60989 83.7627 9.99448 83.6096 10.3159C83.4603 10.6336 83.248 10.8995 82.9724 11.1138C82.7007 11.3243 82.3812 11.4927 82.0138 11.619L81.4685 11.906H78.7591L78.7476 10.5628H80.7624C81.0647 10.5628 81.3154 10.5092 81.5144 10.402C81.7134 10.2949 81.8626 10.1456 81.9621 9.9543C82.0655 9.76296 82.1171 9.541 82.1171 9.28843C82.1171 9.02055 82.0674 8.78903 81.9679 8.59386C81.8684 8.39869 81.7172 8.24944 81.5144 8.14612C81.3116 8.04279 81.0571 7.99113 80.7509 7.99113H79.3561V15H77.634V6.64217ZM82.3066 15L80.4008 11.2746L82.2204 11.2631L84.1492 14.9196V15H82.3066ZM90.7735 13.6568V15H86.3247V13.6568H90.7735ZM86.8873 6.64217V15H85.1652V6.64217H86.8873ZM90.1937 10.0461V11.3549H86.3247V10.0461H90.1937ZM90.7677 6.64217V7.99113H86.3247V6.64217H90.7677ZM95.1762 8.07149L92.9031 15H91.0719L94.1774 6.64217H95.3427L95.1762 8.07149ZM97.0648 15L94.7859 8.07149L94.6022 6.64217H95.779L98.9017 15H97.0648ZM96.9615 11.8888V13.2377H92.5472V11.8888H96.9615ZM105.05 13.6568V15H100.842V13.6568H105.05ZM101.399 6.64217V15H99.6766V6.64217H101.399ZM108.465 6.64217V15H106.749V6.64217H108.465ZM111.037 6.64217V7.99113H104.217V6.64217H111.037ZM113.258 6.64217L115.003 10.4537L116.748 6.64217H118.625L115.876 11.9577V15H114.131V11.9577L111.375 6.64217H113.258Z" fill="#0B3D2E"/>
<g clip-path="url(#clip0_2001_2)">
<path d="M1.01855 20.4404C12.9741 13.9593 20.2608 16.7908 20.2939 16.8037C13.1415 15.9851 3.82489 20.797 0 23C0.317412 22.0483 0.677177 21.1786 1.01855 20.4395V20.4404ZM6.73047 16.8564C5.1702 17.4291 4.25904 17.9356 4.25391 17.9385V6.17871L6.73047 4.2334V16.8564ZM10.2676 15.8301C9.35156 16.0291 8.51584 16.2613 7.7793 16.4971V1.875L10.2676 0V15.8301ZM13.7812 6.52051V15.3125C12.9057 15.3801 12.0702 15.4909 11.2842 15.6299V4.76367L13.7812 6.52051ZM17.2656 10.8672V15.2969C16.419 15.2379 15.5949 15.2278 14.7988 15.2559V9.17773L17.2656 10.8672Z" fill="#CEA84D"/>
</g>
<defs>
<clipPath id="clip0_2001_2">
<rect width="20.2941" height="23" fill="white"/>
</clipPath>
</defs>
</svg>
