<svg width="120" height="24" viewBox="0 0 120 24" fill="none" xmlns="http://www.w3.org/2000/svg">
<path d="M113.258 3.50076L115.003 7.31229L116.748 3.50076H118.625L115.876 8.81625V11.8586H114.131V8.81625L111.375 3.50076H113.258Z" fill="#FFFFFF"/>
<path d="M108.465 3.50076V11.8586H106.749V3.50076H108.465ZM111.037 3.50076V4.84972H104.217V3.50076H111.037Z" fill="#FFFFFF"/>
<path d="M105.05 10.5154V11.8586H100.842V10.5154H105.05ZM101.399 3.50076V11.8586H99.6766V3.50076H101.399Z" fill="#FFFFFF"/>
<path d="M95.1762 4.93008L92.903 11.8586H91.0719L94.1774 3.50076H95.3427L95.1762 4.93008ZM97.0647 11.8586L94.7859 4.93008L94.6022 3.50076H95.7789L98.9016 11.8586H97.0647ZM96.9614 8.74736V10.0963H92.5471V8.74736H96.9614Z" fill="#FFFFFF"/>
<path d="M90.7734 10.5154V11.8586H86.3247V10.5154H90.7734ZM86.8872 3.50076V11.8586H85.1652V3.50076H86.8872ZM90.1936 6.90474V8.21352H86.3247V6.90474H90.1936ZM90.7677 3.50076V4.84972H86.3247V3.50076H90.7677Z" fill="#FFFFFF"/>
<path d="M77.634 3.50076H80.751C81.3901 3.50076 81.9392 3.59643 82.3985 3.78777C82.8615 3.97911 83.2174 4.2623 83.4661 4.63733C83.7149 5.01236 83.8393 5.4735 83.8393 6.02073C83.8393 6.46848 83.7627 6.85307 83.6097 7.17453C83.4604 7.49216 83.248 7.75812 82.9725 7.97243C82.7008 8.1829 82.3812 8.35128 82.0139 8.47757L81.4685 8.76458H78.7591L78.7476 7.42136H80.7625C81.0648 7.42136 81.3155 7.36778 81.5145 7.26063C81.7135 7.15348 81.8627 7.00423 81.9622 6.81289C82.0655 6.62155 82.1172 6.39959 82.1172 6.14702C82.1172 5.87914 82.0674 5.64762 81.9679 5.45245C81.8684 5.25728 81.7173 5.10803 81.5145 5.00471C81.3116 4.90138 81.0571 4.84972 80.751 4.84972H79.3561V11.8586H77.634V3.50076ZM82.3066 11.8586L80.4008 8.13315L82.2205 8.12167L84.1492 11.7782V11.8586H82.3066Z" fill="#FFFFFF"/>
<path d="M71.9798 6.90474V8.24796H67.6172V6.90474H71.9798ZM68.1281 3.50076V11.8586H66.406V3.50076H68.1281ZM73.2082 3.50076V11.8586H71.4919V3.50076H73.2082Z" fill="#FFFFFF"/>
<path d="M62.8528 3.50076V11.8586H61.1364V3.50076H62.8528ZM65.4244 3.50076V4.84972H58.605V3.50076H65.4244Z" fill="#FFFFFF"/>
<path d="M50.7638 10.5326L52.4285 3.50076H53.3584L53.5708 4.67177L51.797 11.8586H50.7982L50.7638 10.5326ZM49.9085 3.50076L51.2861 10.5326L51.1713 11.8586H50.0577L48.2036 3.50076H49.9085ZM55.0345 10.5039L56.395 3.50076H58.0998L56.2515 11.8586H55.1379L55.0345 10.5039ZM53.8807 3.50076L55.5569 10.5613L55.511 11.8586H54.5122L52.7269 4.66603L52.9566 3.50076H53.8807Z" fill="#FFFFFF"/>
<path d="M47.509 7.4845V7.88058C47.509 8.51584 47.4229 9.08604 47.2507 9.59118C47.0785 10.0963 46.8355 10.5268 46.5217 10.8827C46.2079 11.2348 45.8329 11.5046 45.3966 11.6921C44.9642 11.8796 44.4839 11.9734 43.9558 11.9734C43.4315 11.9734 42.9513 11.8796 42.515 11.6921C42.0826 11.5046 41.7075 11.2348 41.3899 10.8827C41.0723 10.5268 40.8255 10.0963 40.6494 9.59118C40.4772 9.08604 40.3911 8.51584 40.3911 7.88058V7.4845C40.3911 6.84542 40.4772 6.27522 40.6494 5.7739C40.8216 5.26876 41.0646 4.83824 41.3784 4.48234C41.6961 4.12644 42.0711 3.85474 42.5035 3.66722C42.9398 3.47971 43.4201 3.38595 43.9443 3.38595C44.4724 3.38595 44.9527 3.47971 45.3851 3.66722C45.8214 3.85474 46.1964 4.12644 46.5102 4.48234C46.8279 4.83824 47.0728 5.26876 47.245 5.7739C47.421 6.27522 47.509 6.84542 47.509 7.4845ZM45.7697 7.88058V7.47302C45.7697 7.02911 45.7296 6.63877 45.6492 6.30201C45.5688 5.96524 45.4502 5.68206 45.2933 5.45245C45.1364 5.22283 44.9451 5.05063 44.7193 4.93582C44.4935 4.81719 44.2352 4.75787 43.9443 4.75787C43.6535 4.75787 43.3952 4.81719 43.1694 4.93582C42.9474 5.05063 42.758 5.22283 42.6011 5.45245C42.448 5.68206 42.3313 5.96524 42.251 6.30201C42.1706 6.63877 42.1304 7.02911 42.1304 7.47302V7.88058C42.1304 8.32067 42.1706 8.71101 42.251 9.05159C42.3313 9.38836 42.45 9.67346 42.6069 9.9069C42.7638 10.1365 42.9551 10.3106 43.1809 10.4293C43.4067 10.5479 43.665 10.6072 43.9558 10.6072C44.2467 10.6072 44.505 10.5479 44.7308 10.4293C44.9565 10.3106 45.146 10.1365 45.299 9.9069C45.4521 9.67346 45.5688 9.38836 45.6492 9.05159C45.7296 8.71101 45.7697 8.32067 45.7697 7.88058Z" fill="#FFFFFF"/>
<path d="M33.1124 3.50076H36.2294C36.8685 3.50076 37.4176 3.59643 37.8769 3.78777C38.3399 3.97911 38.6958 4.2623 38.9445 4.63733C39.1933 5.01236 39.3177 5.4735 39.3177 6.02073C39.3177 6.46848 39.2411 6.85307 39.088 7.17453C38.9388 7.49216 38.7264 7.75812 38.4509 7.97243C38.1792 8.1829 37.8596 8.35128 37.4923 8.47757L36.9469 8.76458H34.2375L34.226 7.42136H36.2409C36.5432 7.42136 36.7939 7.36778 36.9929 7.26063C37.1918 7.15348 37.3411 7.00423 37.4406 6.81289C37.5439 6.62155 37.5956 6.39959 37.5956 6.14702C37.5956 5.87914 37.5458 5.64762 37.4463 5.45245C37.3468 5.25728 37.1957 5.10803 36.9929 5.00471C36.79 4.90138 36.5355 4.84972 36.2294 4.84972H34.8345V11.8586H33.1124V3.50076ZM37.785 11.8586L35.8792 8.13315L37.6989 8.12167L39.6276 11.7782V11.8586H37.785Z" fill="#FFFFFF"/>
<path d="M31.7233 7.49024V10.8024C31.5931 10.9593 31.3922 11.1296 31.1205 11.3133C30.8488 11.4931 30.4987 11.6481 30.0701 11.7782C29.6414 11.9083 29.1229 11.9734 28.5144 11.9734C27.9749 11.9734 27.4831 11.8854 27.0392 11.7093C26.5953 11.5295 26.2126 11.2673 25.8911 10.9229C25.5735 10.5785 25.3286 10.1576 25.1564 9.66007C24.9842 9.15875 24.8981 8.58664 24.8981 7.94373V7.42136C24.8981 6.77845 24.9803 6.20634 25.1449 5.70502C25.3133 5.2037 25.5525 4.78084 25.8624 4.43642C26.1724 4.092 26.5417 3.82987 26.9703 3.65C27.3989 3.47014 27.8754 3.38021 28.3996 3.38021C29.1267 3.38021 29.7237 3.49884 30.1906 3.73611C30.6575 3.96955 31.0134 4.29483 31.2583 4.71195C31.507 5.12525 31.6601 5.59978 31.7175 6.13554H30.0471C30.005 5.85235 29.9246 5.60552 29.806 5.39505C29.6874 5.18457 29.5171 5.02001 29.2951 4.90138C29.077 4.78275 28.7938 4.72343 28.4456 4.72343C28.1585 4.72343 27.9021 4.78275 27.6764 4.90138C27.4544 5.01619 27.2669 5.18648 27.1138 5.41227C26.9607 5.63805 26.844 5.91741 26.7637 6.25035C26.6833 6.58328 26.6431 6.96979 26.6431 7.40988V7.94373C26.6431 8.37999 26.6852 8.7665 26.7694 9.10326C26.8536 9.4362 26.978 9.71747 27.1425 9.94708C27.3109 10.1729 27.5175 10.3432 27.7625 10.458C28.0074 10.5728 28.2925 10.6302 28.6178 10.6302C28.8895 10.6302 29.1153 10.6072 29.2951 10.5613C29.4788 10.5154 29.6261 10.4599 29.7371 10.3948C29.8519 10.3259 29.9399 10.2609 30.0012 10.1997V8.71866H28.4283V7.49024H31.7233Z" fill="#FFFFFF"/>
<path d="M1.01855 20.4404C12.9741 13.9593 20.2608 16.7908 20.2939 16.8037C13.1415 15.9851 3.82489 20.797 0 23C0.317412 22.0483 0.677177 21.1786 1.01855 20.4395V20.4404ZM6.73047 16.8564C5.1702 17.4291 4.25904 17.9356 4.25391 17.9385V6.17871L6.73047 4.2334V16.8564ZM10.2676 15.8301C9.35156 16.0291 8.51584 16.2613 7.7793 16.4971V1.875L10.2676 0V15.8301ZM13.7812 6.52051V15.3125C12.9057 15.3801 12.0702 15.4909 11.2842 15.6299V4.76367L13.7812 6.52051ZM17.2656 10.8672V15.2969C16.419 15.2379 15.5949 15.2278 14.7988 15.2559V9.17773L17.2656 10.8672Z" fill="#CEA84D"/>
<path d="M96.7589 23.3759L96.168 22.9285C97.164 21.789 97.6114 20.7591 97.6114 19.1806C97.6114 17.5937 97.164 16.5554 96.168 15.4158L96.7589 14.9684C97.9322 16.2262 98.4893 17.3489 98.4893 19.1806C98.4893 21.0039 97.9322 22.1182 96.7589 23.3759Z" fill="#FFFFFF"/>
<path d="M92.8794 17.5599C92.4573 18.2099 91.4866 18.7501 90.5496 18.9696L90.1866 18.3365C91.4866 17.9566 92.4067 17.2307 92.4573 16.53H90.5834V15.8463H95.1501V16.53H93.3014C93.3521 17.2307 94.2722 17.9566 95.5722 18.3365L95.2092 18.9696C94.2722 18.7501 93.3014 18.2099 92.8794 17.5599ZM96.0364 19.5689V20.2527H93.2846V22.7597H92.4404V20.2527H89.697V19.5689H96.0364Z" fill="#FFFFFF"/>
<path d="M89.0775 14.9684L89.66 15.4158C88.647 16.5554 88.2081 17.5937 88.2081 19.1806C88.2081 20.7507 88.647 21.7974 89.66 22.937L89.0775 23.3759C87.9042 22.0844 87.3302 21.0039 87.3302 19.1806C87.3302 17.3489 87.9042 16.2599 89.0775 14.9684Z" fill="#FFFFFF"/>
<path d="M80.8362 20.3708V15.9982H84.0439V16.6989H81.6888V18.0495H83.8835V18.7332H81.6888V20.1429C81.6888 20.2864 81.7056 20.2949 81.8407 20.2949H83.664C84.2718 20.2949 84.7783 20.1851 85.1497 19.991V15.6015H85.9938V22.7597H85.1497V20.641C84.8036 20.8435 84.238 20.9955 83.5036 20.9955H81.4693C81.0219 20.9955 80.8362 20.8773 80.8362 20.3708Z" fill="#FFFFFF"/>
<path d="M75.2877 19.0793C74.013 19.0793 73.4728 18.3449 73.4728 17.3742C73.4728 16.4034 74.013 15.669 75.2877 15.669C76.3766 15.669 76.9253 16.2177 77.0603 16.9859H78.2168V15.6015H79.0693V19.1468H78.2168V17.6949H77.0688C76.959 18.5053 76.4103 19.0793 75.2877 19.0793ZM74.7136 22.3799V20.8689H78.2252V20.278H74.7559V19.628H79.0693V21.4935H75.5578V22.076C75.5578 22.1773 75.5662 22.1857 75.6591 22.1857H79.3226V22.8441H75.1779C74.8318 22.8441 74.7136 22.6837 74.7136 22.3799ZM75.2877 18.3871C75.9123 18.3871 76.2922 18.0495 76.2922 17.3742C76.2922 16.6904 75.9123 16.3528 75.2877 16.3528C74.6546 16.3528 74.2831 16.6904 74.2831 17.3742C74.2831 18.0495 74.6546 18.3871 75.2877 18.3871Z" fill="#FFFFFF"/>
<path d="M69.8658 20.9955H67.6204C67.173 20.9955 66.9873 20.8773 66.9873 20.3708V18.1508H69.1989V16.6482H67.0295V15.9982H70.043V18.7839H67.8314V20.1851C67.8314 20.3202 67.8568 20.3286 67.9665 20.3286H69.908C70.4482 20.3286 70.9547 20.2104 71.3008 20.0669V15.6015H72.1449V22.7597H71.3008V20.6832C70.9716 20.8773 70.4398 20.9955 69.8658 20.9955Z" fill="#FFFFFF"/>
<path d="M59.4634 20.8182H65.8028V21.5188H59.4634V20.8182ZM62.6289 17.8722C62.2068 18.5644 61.2107 19.265 60.2737 19.4845L59.9445 18.8936C61.2783 18.4969 62.2068 17.5683 62.2068 16.7411V15.8379H63.0509V16.7411C63.0509 17.5768 63.9795 18.4969 65.3132 18.8936L64.984 19.4845C64.047 19.265 63.0509 18.5644 62.6289 17.8722Z" fill="#FFFFFF"/>
<path d="M53.5181 19.2313V17.4839H57.0635V16.6651H53.5266V15.9645H57.8992V18.1761H54.3623V18.9274C54.3623 19.0371 54.3876 19.0624 54.4804 19.0624H58.068V19.7631H56.1265V20.8604H58.8783V21.5611H52.5389V20.8604H55.2824V19.7631H54.0162C53.687 19.7631 53.5181 19.5858 53.5181 19.2313Z" fill="#FFFFFF"/>
<path d="M51.9539 21.5188H45.6145V20.8182H49.8183C50.0377 20.2527 50.139 19.4845 50.139 18.9189V16.7411H46.5515V16.0489H50.9747V18.6741C50.9747 19.4085 50.8397 20.1682 50.5949 20.8182H51.9539V21.5188Z" fill="#FFFFFF"/>
<path d="M119.353 18.6621L119.353 19.3379L102.353 19.3379L102.353 18.6621L119.353 18.6621Z" fill="#FFFFFF"/>
<path d="M41.3528 18.6621L41.3528 19.3379L24.3528 19.3379L24.3528 18.6621L41.3528 18.6621Z" fill="#FFFFFF"/>
</svg>
